# xmcd
# 
# Track frame offsets:
#     150
#     15375
#     26813
#     35250
#     51973
#     68325
#     81300
#     92325
#     106163
#     118650
#     133160
#     147298
#     158400
#     168223
#     183713
# 
# Disc length: 2535
# 
# Revision: 0
# Processed by: cddbd v1.5.2PL0 Copyright (c) Steve Scherf et al.
# Submitted via: fre:ac v1.0.17
# 
DISCID=b809e50f
DTITLE=Doug Sahm - Juke Box Music
DYEAR=0
DGENRE=
TTITLE0=I Won't Cry
TTITLE1=Money Over Love
TTITLE2=Crazy Baby
TTITLE3=You're Mine Tonight
TTITLE4=Hey Little Girl
TTITLE5=It Hurts To Love Someone (That Don't Love You)
TTITLE6=Buzz Buzz Buzz
TTITLE7=My Dearest Darling
TTITLE8=She Put The Hurt On Me
TTITLE9=What's Your Name
TTITLE10=I Don't Believe
TTITLE11=Golly Gee
TTITLE12=Chicken And The Bop
TTITLE13=Talk To Me, Talk To Me
TTITLE14=Goodnight My Love (Pleasant Dreams)
EXTD=
EXTT0=
EXTT1=
EXTT2=
EXTT3=
EXTT4=
EXTT5=
EXTT6=
EXTT7=
EXTT8=
EXTT9=
EXTT10=
EXTT11=
EXTT12=
EXTT13=
EXTT14=
PLAYORDER=
